<svg width="350" height="249" viewBox="0 0 350 249" fill="none" xmlns="http://www.w3.org/2000/svg">
<path d="M349.36 57.5948V138.658C349.36 145.871 343.502 151.718 336.276 151.718H204.302C197.077 151.718 191.219 145.871 191.219 138.658V57.5948C191.219 50.3817 197.077 44.5342 204.302 44.5342H336.276C343.502 44.5342 349.36 50.3817 349.36 57.5948Z" fill="#FFC9B2"/>
<path d="M349.359 65.0898H191.219V87.2712H349.359V65.0898Z" fill="black"/>
<path d="M302.922 140.761H282.643C281.236 140.761 280.095 139.622 280.095 138.218V117.974C280.095 116.57 281.235 115.431 282.643 115.431H302.922C304.329 115.431 305.47 116.57 305.47 117.974V138.218C305.47 139.622 304.329 140.761 302.922 140.761Z" fill="#FF8F5F"/>
<path d="M331.642 139.359C337.874 135.041 339.418 126.498 335.093 120.277C330.767 114.057 322.208 112.515 315.977 116.833C309.746 121.152 308.201 129.695 312.527 135.915C316.853 142.135 325.411 143.677 331.642 139.359Z" fill="white"/>
<path d="M177.102 20.6182H256.73C264.1 20.6182 270.075 26.5827 270.075 33.9403V177.898C270.075 185.256 264.1 191.219 256.73 191.219H177.102C169.731 191.219 163.757 185.255 163.757 177.898V33.9403C163.757 26.5833 169.731 20.6182 177.102 20.6182Z" fill="#36CC9E"/>
<path d="M169.6 163.358V33.5805C169.6 29.6425 172.798 26.4502 176.742 26.4502H257.091C261.036 26.4502 264.234 29.6425 264.234 33.5805V163.358C264.234 167.296 261.037 170.488 257.091 170.488H176.742C172.797 170.488 169.6 167.296 169.6 163.358Z" fill="white"/>
<path d="M209.867 181.148C209.867 185.034 213.023 188.185 216.916 188.185C220.809 188.185 223.965 185.034 223.965 181.148C223.965 177.262 220.809 174.111 216.916 174.111C213.023 174.111 209.867 177.262 209.867 181.148Z" fill="white"/>
<path d="M218.02 96.8178C235.107 96.2119 248.466 81.8935 247.859 64.8366C247.252 47.7798 232.909 34.4436 215.822 35.0495C198.735 35.6553 185.376 49.9738 185.983 67.0307C186.59 84.0875 200.933 97.4237 218.02 96.8178Z" fill="#78DDBE"/>
<path d="M210.791 78.0714C210.552 78.0714 210.312 77.9818 210.126 77.8019L198.831 66.8453C198.453 66.4788 198.445 65.8755 198.812 65.4983C199.179 65.1211 199.783 65.1124 200.161 65.4789L210.798 75.7968L233.677 54.0375C234.058 53.6743 234.663 53.689 235.027 54.0702C235.39 54.4515 235.375 55.0541 234.994 55.4172L211.45 77.8086C211.265 77.9838 211.029 78.0714 210.791 78.0714Z" fill="black"/>
<path d="M172.034 10.7213C171.508 10.7213 171.08 10.2946 171.08 9.76895V1.54584C171.08 1.01948 171.507 0.592773 172.034 0.592773C172.561 0.592773 172.988 1.01948 172.988 1.54584V9.76895C172.989 10.2946 172.561 10.7213 172.034 10.7213Z" fill="black"/>
<path d="M153.881 27.4943C153.815 27.4943 153.748 27.4876 153.681 27.4729L142.398 25.0698C141.883 24.9601 141.554 24.4538 141.664 23.9395C141.773 23.4252 142.281 23.0975 142.796 23.2065L154.079 25.6095C154.595 25.7192 154.923 26.2255 154.813 26.7398C154.718 27.1879 154.322 27.4943 153.881 27.4943Z" fill="black"/>
<path d="M252.868 126.157V113.987C252.868 111.222 250.622 108.981 247.853 108.981H185.98C183.21 108.981 180.966 111.223 180.966 113.987V126.157C180.966 128.921 183.211 131.162 185.98 131.162H247.853C250.622 131.163 252.868 128.921 252.868 126.157Z" fill="#36CC9E"/>
<path d="M233.875 126.729C231.934 126.729 230.07 126.346 228.591 125.527C228.031 125.218 227.523 124.811 227.082 124.332C226.404 124.725 225.664 125.093 224.858 125.438C221.541 126.859 218.106 127.067 215.186 126.023C214.33 125.717 213.32 125.241 212.415 124.513C209.988 125.917 207.101 126.597 204.132 126.396C202.255 126.268 200.724 125.82 199.451 125.024C198.917 124.691 198.428 124.277 197.992 123.8C197.74 124.033 197.475 124.255 197.198 124.465C194.766 126.305 190.838 126.932 188.346 124.469C187.971 124.099 187.968 123.496 188.339 123.122C188.709 122.748 189.314 122.745 189.688 123.116C191.416 124.823 194.253 124.303 196.044 122.948C196.337 122.726 196.615 122.485 196.879 122.227C196.449 121.435 196.131 120.551 195.947 119.608C195.472 117.177 195.947 114.754 197.249 112.96C197.996 111.931 199.112 111.211 200.164 111.081C200.914 110.988 201.606 111.186 202.164 111.653C203.454 112.732 203.519 114.677 202.347 117.13C201.444 119.022 200.515 120.851 199.29 122.394C199.637 122.798 200.031 123.142 200.463 123.412C201.463 124.037 202.705 124.391 204.261 124.497C206.687 124.661 209.046 124.153 211.065 123.085C210.855 122.785 210.666 122.46 210.504 122.107C209.575 120.084 209.962 117.08 212.019 115.833C213.079 115.19 214.504 115.26 215.65 116.009C216.756 116.734 217.341 117.929 217.177 119.13C217.041 120.122 216.479 120.909 216.006 121.484C215.432 122.18 214.789 122.81 214.09 123.37C214.72 123.788 215.361 124.063 215.83 124.231C218.294 125.111 221.233 124.919 224.106 123.688C224.793 123.394 225.425 123.083 226.003 122.755C225.64 122.025 225.399 121.22 225.307 120.384C225.131 118.792 225.663 117.194 226.695 116.213C227.577 115.375 229.056 115.009 230.213 115.342C231.146 115.611 231.791 116.276 232.029 117.216C232.46 118.912 231.32 120.6 230.602 121.454C230.058 122.102 229.427 122.701 228.702 123.256C228.952 123.495 229.226 123.7 229.518 123.861C233.025 125.8 239.381 124.748 242.112 121.774C242.468 121.386 243.072 121.36 243.46 121.716C243.849 122.071 243.875 122.674 243.519 123.061C241.373 125.396 237.492 126.729 233.875 126.729ZM213.627 117.298C213.411 117.298 213.198 117.346 213.01 117.461C211.873 118.15 211.665 120.063 212.239 121.313C212.362 121.58 212.51 121.828 212.677 122.054C213.36 121.534 213.983 120.939 214.532 120.273C214.846 119.893 215.215 119.389 215.286 118.872C215.382 118.171 214.788 117.724 214.603 117.603C214.333 117.425 213.976 117.298 213.627 117.298ZM229.298 117.122C228.839 117.122 228.314 117.303 228.009 117.592C227.418 118.154 227.094 119.192 227.203 120.174C227.261 120.699 227.403 121.212 227.612 121.686C228.196 121.233 228.702 120.748 229.138 120.23C229.948 119.264 230.337 118.312 230.178 117.683C230.107 117.405 229.959 117.251 229.682 117.172C229.565 117.138 229.435 117.122 229.298 117.122ZM200.519 112.963C199.88 113.035 199.22 113.489 198.795 114.077C197.817 115.426 197.452 117.357 197.82 119.243C197.914 119.728 198.052 120.192 198.229 120.626C199.138 119.344 199.888 117.851 200.625 116.309C201.195 115.114 201.577 113.647 200.939 113.112C200.853 113.041 200.73 112.963 200.519 112.963Z" fill="white"/>
<path d="M110.96 41.8396C106.08 31.7318 95.475 26.9738 83.7735 24.1928C78.1327 22.8525 72.2166 22.8525 68.3514 22.8525C47.4816 22.8525 30.9125 39.7435 30.5634 60.5738C30.4649 66.4548 30.7296 70.1219 28.3872 75.3915C26.1193 80.4926 24.9589 84.9583 24.3652 88.2381C38.9116 93.8569 54.7229 96.9408 71.2559 96.9408C90.2819 96.9408 108.353 92.8597 124.639 85.5274C123.388 75.7781 115.168 69.8865 116.013 62.8465C117.007 54.5585 113.309 46.7052 110.96 41.8396Z" fill="black"/>
<path d="M113.605 69.1081L106.962 64.9514L106.885 62.4701C106.554 51.7522 104.982 40.0894 92.3154 38.624C92.3154 38.624 89.7969 68.0981 75.42 68.3737C75.42 68.3737 83.9826 79.1082 78.4927 96.4018C78.4927 96.4018 62.343 96.559 57.1592 96.3778V124.669L92.3154 125.506V99.7346C106.507 99.7493 110.472 94.4355 110.472 79.0908L114.446 74.2593C115.778 72.6401 115.383 70.221 113.605 69.1081Z" fill="white"/>
<path d="M92.3151 126.459C92.2923 126.459 57.1354 125.622 57.1354 125.622C56.6175 125.609 56.2041 125.187 56.2041 124.669V96.3785C56.2041 95.8528 56.6309 95.4261 57.1582 95.4261C57.6848 95.4261 58.1123 95.8528 58.1123 96.3785V123.739L91.3603 124.531V99.7352C91.3603 99.4824 91.4608 99.2397 91.6404 99.0611C91.8193 98.8825 92.0618 98.7829 92.3144 98.7829C98.8885 98.7829 102.929 97.6512 105.471 95.1164C108.307 92.288 109.517 87.4959 109.517 79.0922C109.517 78.8715 109.594 78.6581 109.734 78.4876L113.708 73.6561C114.169 73.0956 114.366 72.3639 114.249 71.6483C114.132 70.9326 113.712 70.3013 113.096 69.916L106.453 65.7593C106.184 65.5908 106.017 65.2992 106.007 64.9815L105.929 62.5002C105.609 52.1375 104.257 40.9656 92.2039 39.5711C91.6806 39.5109 91.3047 39.0381 91.3657 38.515C91.4267 37.9927 91.8997 37.6175 92.4236 37.6783C98.4302 38.3732 102.693 41.403 105.093 46.6846C107.227 51.3777 107.678 57.2834 107.837 62.4413L107.898 64.415L114.109 68.3015C115.189 68.977 115.926 70.0852 116.131 71.3406C116.336 72.5966 115.99 73.8808 115.181 74.8639L111.423 79.4326C111.388 88.1814 110.004 93.2845 106.817 96.4634C104.015 99.2584 99.8111 100.572 93.2672 100.68V125.506C93.2672 125.763 93.1633 126.008 92.9797 126.188C92.8029 126.362 92.5637 126.459 92.3151 126.459Z" fill="black"/>
<path d="M98.5844 64.1895C98.5128 65.0717 99.1707 65.8455 100.054 65.9171C100.938 65.9893 101.713 65.3325 101.785 64.4497C101.857 63.5675 101.199 62.7937 100.315 62.7221C99.4313 62.6506 98.6561 63.3073 98.5844 64.1895Z" fill="black"/>
<path d="M105.233 59.2474C104.942 59.2474 104.655 59.115 104.467 58.8641C104.45 58.8421 102.568 56.3902 99.7819 56.1748C97.9669 56.035 96.113 56.8684 94.2712 58.6521C93.8926 59.0186 93.289 59.0093 92.9218 58.6321C92.5546 58.2542 92.564 57.6516 92.9419 57.2851C95.2011 55.0974 97.5589 54.0854 99.9494 54.2767C103.602 54.5697 105.901 57.5967 105.997 57.7251C106.312 58.1472 106.225 58.7438 105.802 59.0581C105.632 59.1858 105.431 59.2474 105.233 59.2474Z" fill="black"/>
<path d="M92.3157 100.687C92.2889 100.687 84.7675 100.478 84.7675 100.478C84.2409 100.463 83.8255 100.025 83.8402 99.4996C83.855 98.9739 84.2945 98.5532 84.8204 98.574L92.3419 98.7833C92.8685 98.798 93.2839 99.2361 93.2691 99.7618C93.2544 100.279 92.8303 100.687 92.3157 100.687Z" fill="black"/>
<path d="M74.0018 78.2395C79.1038 79.3965 84.1972 76.1942 85.3563 71.1012C86.5154 66.0081 83.3074 60.9238 78.2054 59.7667C73.1033 58.6097 68.01 61.812 66.8509 66.905C65.6925 71.9981 68.9004 77.0831 74.0018 78.2395Z" fill="white"/>
<path d="M80.3961 73.9035C80.1649 73.9035 79.9331 73.8206 79.7502 73.6514L71.1648 65.7553C70.7776 65.3988 70.7528 64.7962 71.1099 64.4096C71.467 64.0224 72.0707 63.9983 72.4579 64.3548L81.0426 72.2509C81.4306 72.6073 81.4547 73.2099 81.0983 73.5965C80.91 73.8005 80.6534 73.9035 80.3961 73.9035Z" fill="black"/>
<path d="M73.0312 80.2211C73.0312 83.2314 75.4761 85.6726 78.4917 85.6726C81.5081 85.6726 83.9529 83.2321 83.9529 80.2211C83.9529 77.2107 81.5081 74.7695 78.4917 74.7695C75.4754 74.7695 73.0312 77.21 73.0312 80.2211Z" fill="#FFC9B2"/>
<path d="M115.806 117.491L105.312 105.042C104.425 103.989 103.117 103.381 101.738 103.381H54.8156C52.4405 103.381 50.4432 105.16 50.1739 107.515L49.0342 117.491H115.806Z" fill="#78DDBE"/>
<path d="M10.4396 247.454L1.71624 195.284C-4.9918 155.167 20.4749 117.23 55.075 116.539C55.398 116.533 55.7216 116.529 56.0459 116.529H106.946C138.074 116.529 163.308 146.349 163.308 183.132L154.57 247.454H10.4396Z" fill="#FF8F5F"/>
<path d="M263.805 162.95C263.139 156.449 256.665 151.66 250.51 153.761C249.352 146.288 240.538 145.41 237.994 147.305C237.994 147.305 245.679 129.411 247.045 125.013C248.15 121.455 246.436 115.922 242.5 114.012C239.302 112.461 233.443 112.353 229.78 119.265C227.864 122.881 215.371 150.321 215.371 150.321C215.371 150.321 206.874 159.962 204.076 163.725C201.68 166.946 204.431 182.023 205.274 186.301C203.566 192.036 198.156 202.033 198.156 202.033L250.592 229.435C250.592 229.435 269.878 187.213 270.667 185.081C278.602 163.646 267.866 161.948 263.805 162.95Z" fill="white"/>
<path d="M250.593 230.387C250.44 230.387 250.288 230.35 250.151 230.279L197.714 202.877C197.489 202.759 197.319 202.555 197.245 202.312C197.17 202.068 197.196 201.805 197.318 201.581C197.371 201.483 202.562 191.861 204.293 186.251C202.859 178.92 200.883 166.421 203.31 163.157C205.975 159.575 213.579 150.916 214.562 149.798C215.601 147.515 227.077 122.33 228.938 118.82C231.145 114.654 234.029 113.109 236.06 112.547C238.327 111.92 240.826 112.141 242.918 113.156C247.3 115.281 249.193 121.318 247.957 125.295C246.855 128.844 241.814 140.779 239.748 145.629C241.528 145.317 243.73 145.548 245.666 146.339C248.534 147.509 250.481 149.699 251.236 152.567C253.955 151.95 256.846 152.469 259.317 154.049C262.067 155.807 263.993 158.669 264.606 161.841C267.038 161.557 270.035 162.228 272.031 164.456C275.453 168.278 275.296 175.328 271.563 185.411C270.771 187.551 252.25 228.105 251.462 229.83C251.353 230.068 251.151 230.251 250.903 230.336C250.802 230.371 250.697 230.387 250.593 230.387ZM199.45 201.634L250.143 228.125C256.909 213.307 269.171 186.376 269.772 184.751C274.092 173.08 272.611 167.963 270.607 165.725C268.597 163.481 265.529 163.505 264.034 163.875C263.766 163.94 263.482 163.887 263.256 163.729C263.03 163.57 262.884 163.322 262.856 163.047C262.549 160.05 260.841 157.286 258.287 155.653C255.959 154.165 253.308 153.813 250.819 154.662C250.551 154.753 250.258 154.722 250.017 154.576C249.775 154.43 249.611 154.186 249.567 153.907C249.031 150.45 246.757 148.842 244.943 148.101C242.461 147.088 239.641 147.266 238.564 148.068C238.218 148.325 237.742 148.319 237.403 148.052C237.064 147.786 236.947 147.325 237.117 146.929C237.194 146.75 244.798 129.031 246.134 124.729C247.12 121.555 245.565 116.556 242.083 114.867C239.455 113.592 234.085 113.178 230.624 119.709C228.743 123.258 216.364 150.439 216.24 150.713C216.201 150.799 216.149 150.878 216.088 150.948C216.003 151.044 207.585 160.602 204.842 164.29C203.435 166.182 203.972 174.749 206.211 186.114C206.241 186.265 206.233 186.422 206.19 186.57C204.747 191.418 200.802 199.075 199.45 201.634Z" fill="black"/>
<path d="M207.649 167.951C207.518 167.951 207.385 167.925 207.257 167.866C206.777 167.65 206.563 167.086 206.78 166.606L214.121 150.361C214.338 149.881 214.903 149.668 215.384 149.885C215.864 150.101 216.078 150.665 215.861 151.145L208.519 167.389C208.361 167.743 208.013 167.951 207.649 167.951Z" fill="black"/>
<path d="M231.031 167.081C230.921 167.081 230.809 167.061 230.7 167.021C230.206 166.839 229.953 166.291 230.135 165.797L237.099 146.975C237.282 146.482 237.831 146.23 238.325 146.412C238.82 146.594 239.073 147.142 238.89 147.635L231.926 166.457C231.784 166.843 231.418 167.081 231.031 167.081Z" fill="black"/>
<path d="M245.288 171.636C245.195 171.636 245.1 171.622 245.007 171.593C244.503 171.438 244.221 170.905 244.375 170.402L249.599 153.481C249.753 152.978 250.287 152.696 250.791 152.851C251.295 153.006 251.577 153.539 251.422 154.042L246.199 170.963C246.073 171.373 245.695 171.636 245.288 171.636Z" fill="black"/>
<path d="M258.939 177.594C258.833 177.594 258.725 177.576 258.62 177.539C258.123 177.363 257.863 176.819 258.04 176.323L262.906 162.632C263.082 162.136 263.627 161.878 264.124 162.053C264.62 162.229 264.88 162.773 264.704 163.269L259.838 176.96C259.699 177.35 259.331 177.594 258.939 177.594Z" fill="black"/>
<path d="M88.008 247.454L54.502 177.229L155.736 149.768L186.723 210.609C188.038 213.192 191.769 213.089 192.939 210.437L201.535 190.947L280.141 225.494L270.456 247.454H88.008V247.454Z" fill="#FF8F5F"/>
<path d="M88.0093 248.407C87.6528 248.407 87.3105 248.206 87.1476 247.863L53.6416 177.638C53.4152 177.163 53.6175 176.594 54.0932 176.368C54.5689 176.142 55.1384 176.344 55.3649 176.819L88.8709 247.044C89.0974 247.519 88.895 248.087 88.4193 248.313C88.2866 248.377 88.1473 248.407 88.0093 248.407Z" fill="black"/>
<path d="M47.1983 206.897C45.723 206.897 44.5264 205.703 44.5264 204.23C44.5264 183.758 47.0965 166.295 52.165 152.328C56.3793 140.714 62.3477 131.402 69.9046 124.65C85.4902 110.725 102.293 112.409 103.001 112.487C104.467 112.65 105.524 113.968 105.361 115.432C105.198 116.894 103.882 117.949 102.418 117.79C102.38 117.786 98.5451 117.404 93.0592 118.57C85.7562 120.122 79.1305 123.536 73.3652 128.718C57.775 142.73 49.8703 168.137 49.8703 204.231C49.8696 205.703 48.6737 206.897 47.1983 206.897Z" fill="black"/>
<path d="M67.264 204.23L87.2313 247.454H26.3799V213.699C26.3799 208.47 30.6263 204.23 35.8644 204.23H67.264Z" fill="black"/>
<path d="M110.294 85.0794C104.953 85.0794 102.215 82.8964 102.101 82.8034C101.693 82.471 101.633 81.8704 101.967 81.4631C102.299 81.0571 102.897 80.9956 103.305 81.3253C103.349 81.3594 105.703 83.1746 110.295 83.1746C110.822 83.1746 111.249 83.6006 111.249 84.127C111.249 84.6527 110.821 85.0794 110.294 85.0794Z" fill="black"/>
</svg>
