<svg width="23" height="22" viewBox="0 0 23 22" fill="none" xmlns="http://www.w3.org/2000/svg">
<path d="M21.0199 19.7592C21.0701 20.0997 20.7775 20.3924 20.4369 20.3421L17.1282 19.8527C15.4751 20.8908 13.519 21.4909 11.4232 21.4909C5.48871 21.4909 0.677734 16.6799 0.677734 10.7454C0.677734 4.811 5.48871 0 11.4232 0C17.3576 0 22.1686 4.81097 22.1686 10.7454C22.1686 12.8413 21.5685 14.7974 20.5304 16.4505L21.0199 19.7592Z" fill="#4FB99F"/>
<path d="M11.423 12.2951C12.2788 12.2951 12.9725 11.6013 12.9725 10.7456C12.9725 9.88978 12.2788 9.19604 11.423 9.19604C10.5673 9.19604 9.87354 9.88978 9.87354 10.7456C9.87354 11.6013 10.5673 12.2951 11.423 12.2951Z" fill="white"/>
<path d="M6.25556 12.2951C7.11133 12.2951 7.80507 11.6013 7.80507 10.7456C7.80507 9.88978 7.11133 9.19604 6.25556 9.19604C5.39979 9.19604 4.70605 9.88978 4.70605 10.7456C4.70605 11.6013 5.39979 12.2951 6.25556 12.2951Z" fill="white"/>
<path d="M16.5905 12.2951C17.4463 12.2951 18.14 11.6013 18.14 10.7456C18.14 9.88978 17.4463 9.19604 16.5905 9.19604C15.7348 9.19604 15.041 9.88978 15.041 10.7456C15.041 11.6013 15.7348 12.2951 16.5905 12.2951Z" fill="white"/>
</svg>
