<svg width="33" height="33" viewBox="0 0 33 33" fill="none" xmlns="http://www.w3.org/2000/svg">
<path d="M31.2361 30.341C31.3133 30.8639 30.8639 31.3133 30.341 31.2361L25.2604 30.4845C22.7219 32.0786 19.7182 33 16.5 33C7.38742 33 0 25.6125 0 16.5C0 7.38747 7.38742 0 16.5 0C25.6126 0 33 7.38742 33 16.5C33 19.7182 32.0786 22.7219 30.4845 25.2604L31.2361 30.341Z" fill="#4E4E4E"/>
<path d="M16.5004 18.8797C17.8145 18.8797 18.8797 17.8145 18.8797 16.5004C18.8797 15.1864 17.8145 14.1211 16.5004 14.1211C15.1864 14.1211 14.1211 15.1864 14.1211 16.5004C14.1211 17.8145 15.1864 18.8797 16.5004 18.8797Z" fill="white"/>
<path d="M8.56487 18.8797C9.87894 18.8797 10.9442 17.8145 10.9442 16.5004C10.9442 15.1864 9.87894 14.1211 8.56487 14.1211C7.25081 14.1211 6.18555 15.1864 6.18555 16.5004C6.18555 17.8145 7.25081 18.8797 8.56487 18.8797Z" fill="white"/>
<path d="M24.435 18.8797C25.7491 18.8797 26.8143 17.8145 26.8143 16.5004C26.8143 15.1864 25.7491 14.1211 24.435 14.1211C23.1209 14.1211 22.0557 15.1864 22.0557 16.5004C22.0557 17.8145 23.1209 18.8797 24.435 18.8797Z" fill="white"/>
</svg>
