<svg width="431" height="352" viewBox="0 0 431 352" fill="none" xmlns="http://www.w3.org/2000/svg">
<g filter="url(#filter0_d_178_23725)">
<path d="M346.936 170.825C343.96 138.579 328.592 110.462 305.97 90.7402C332.058 111.499 349.985 142.434 353.283 178.176C359.705 247.722 308.344 309.528 238.806 315.948C208.285 318.765 179.263 310.451 155.75 294.365C160.341 292.669 164.766 290.7 169.011 288.485C189.277 299.437 212.891 304.725 237.556 302.45C304.107 296.313 353.08 237.373 346.936 170.825Z" fill="url(#paint0_linear_178_23725)"/>
<path d="M239.013 318.198C207.362 321.12 177.293 312.279 153.129 295.298C152.058 295.668 150.976 296.023 149.889 296.361C146.437 297.435 142.971 298.338 139.498 299.077C166.279 322.413 202.171 335.206 240.253 331.691C314.138 324.871 368.704 259.211 361.884 185.326C358.341 146.935 338.914 113.764 310.703 91.7088C335.447 112.774 352.318 143.127 355.534 177.968C362.071 248.757 309.795 311.664 239.013 318.198Z" fill="url(#paint1_linear_178_23725)"/>
<path d="M240.461 333.942C201.116 337.573 164.072 324.084 136.714 299.634C132.213 300.483 127.705 301.051 123.216 301.35C152.304 333.285 195.485 351.7 241.707 347.432C319.938 340.211 377.707 270.691 370.481 192.47C366.733 151.849 346.189 116.747 316.352 93.3944C342.724 115.757 360.713 148.044 364.134 185.119C371.069 260.247 315.588 327.007 240.461 333.942Z" fill="url(#paint2_linear_178_23725)"/>
<path d="M33.5146 134.434L230.16 2.95996L338.654 75.4972V28.9533H360.88V90.3572L426.806 134.434L423.038 150.632L230.16 22.9259L38.7887 150.632L33.5146 134.434Z" fill="url(#paint3_linear_178_23725)"/>
<path d="M242.215 174.366C201.831 130.064 148.79 108.19 127.317 102.79C155.194 115.598 170.639 157.79 182.694 157.79C190.831 157.79 218.482 173.989 228.653 183.03L241.462 177.38L242.215 174.366Z" fill="url(#paint4_linear_178_23725)"/>
<path d="M244.852 216.558C240.03 178.887 130.079 140.085 75.7068 125.393C72.3164 131.797 108.481 147.996 110.741 147.996C116.392 147.996 141.632 157.037 136.358 157.037C132.139 157.037 119.029 154.023 113.002 152.516L128.447 163.441C162.502 166.756 184.075 179.891 190.605 186.044C165.29 174.592 142.134 170.222 133.721 169.469L145.399 178.51C172.146 181.524 209.064 197.346 209.441 199.606C209.742 201.414 208.311 200.862 207.557 200.359C198.215 195.537 166.746 188.807 152.18 186.044L158.584 192.448C170.639 195.588 196.105 202.394 201.53 204.503C208.311 207.14 205.297 209.024 204.543 209.401C203.941 209.702 177.169 202.996 163.858 199.606L170.262 206.387C179.931 209.149 199.872 214.825 202.283 215.428C205.297 216.181 204.92 218.065 203.413 218.442C202.208 218.743 183.573 214.047 174.406 211.661C171.393 217.085 191.233 223.716 201.53 226.353C188.571 228.462 179.555 225.474 176.667 223.716C159.338 239.161 114.885 258.374 98.6864 260.257C85.7274 261.764 31.5055 272.438 6.01446 277.586L2.62402 281.353C6.39118 283.99 106.974 266.285 103.584 273.442C100.193 280.6 77.9671 295.668 59.8848 304.71C45.4189 311.942 24.4735 324.55 15.8091 329.949L59.8848 311.49C99.0632 288.134 161.975 272.312 163.105 270.052C164.235 267.791 205.674 243.305 212.454 243.682C217.879 243.983 236.313 225.725 244.852 216.558Z" fill="url(#paint5_linear_178_23725)"/>
<path d="M232.044 186.044C239.578 192.448 248.242 206.01 250.126 212.038C252.01 212.038 259.092 209.401 267.832 200.359C278.756 189.058 307.763 190.188 299.852 192.448C291.941 194.709 284.784 206.387 274.989 223.716C265.195 241.045 233.174 265.531 209.441 266.285C190.454 266.887 181.941 271.307 180.057 273.442C251.256 282.107 281.097 230.214 291.188 209.401C297.215 196.969 313.917 189.435 321.702 187.928C319.592 184.311 310.024 183.909 305.503 184.161C272.729 145.736 251.256 181.524 244.852 182.654C239.729 183.558 233.802 185.291 232.044 186.044Z" fill="url(#paint6_linear_178_23725)"/>
<rect x="207.557" y="65.1172" width="17.8161" height="17.8161" fill="url(#paint7_linear_178_23725)"/>
<rect x="233.539" y="65.1172" width="17.8161" height="17.8161" fill="url(#paint8_linear_178_23725)"/>
<rect x="207.557" y="93.3262" width="17.8161" height="17.8161" fill="url(#paint9_linear_178_23725)"/>
<rect x="233.539" y="93.3262" width="17.8161" height="17.8161" fill="url(#paint10_linear_178_23725)"/>
<path d="M94.9497 254.751C80.1104 222.57 77.6754 186.021 88.1142 152.147L98.2446 155.285C88.579 186.65 90.8336 220.492 104.574 250.289L94.9497 254.751Z" fill="url(#paint11_linear_178_23725)"/>
</g>
<defs>
<filter id="filter0_d_178_23725" x="0.397015" y="0.732953" width="430.12" height="351.021" filterUnits="userSpaceOnUse" color-interpolation-filters="sRGB">
<feFlood flood-opacity="0" result="BackgroundImageFix"/>
<feColorMatrix in="SourceAlpha" type="matrix" values="0 0 0 0 0 0 0 0 0 0 0 0 0 0 0 0 0 0 127 0" result="hardAlpha"/>
<feOffset dx="0.742336" dy="0.742336"/>
<feGaussianBlur stdDeviation="1.48467"/>
<feComposite in2="hardAlpha" operator="out"/>
<feColorMatrix type="matrix" values="0 0 0 0 0 0 0 0 0 0 0 0 0 0 0 0 0 0 0.12 0"/>
<feBlend mode="normal" in2="BackgroundImageFix" result="effect1_dropShadow_178_23725"/>
<feBlend mode="normal" in="SourceGraphic" in2="effect1_dropShadow_178_23725" result="shape"/>
</filter>
<linearGradient id="paint0_linear_178_23725" x1="402.04" y1="99.7936" x2="11.6624" y2="364.956" gradientUnits="userSpaceOnUse">
<stop stop-color="#E5A31E"/>
<stop offset="0.1" stop-color="#E5A421"/>
<stop offset="0.2" stop-color="#E6AA2D"/>
<stop offset="0.29" stop-color="#E8B340"/>
<stop offset="0.38" stop-color="#EBBF5A"/>
<stop offset="0.47" stop-color="#EFCF7D"/>
<stop offset="0.53" stop-color="#F3DD99"/>
<stop offset="0.6" stop-color="#F0D180"/>
<stop offset="0.72" stop-color="#EBBF59"/>
<stop offset="0.83" stop-color="#E8B13D"/>
<stop offset="0.93" stop-color="#E6A92C"/>
<stop offset="1" stop-color="#E6A726"/>
</linearGradient>
<linearGradient id="paint1_linear_178_23725" x1="402.04" y1="99.7936" x2="11.6624" y2="364.956" gradientUnits="userSpaceOnUse">
<stop stop-color="#E5A31E"/>
<stop offset="0.1" stop-color="#E5A421"/>
<stop offset="0.2" stop-color="#E6AA2D"/>
<stop offset="0.29" stop-color="#E8B340"/>
<stop offset="0.38" stop-color="#EBBF5A"/>
<stop offset="0.47" stop-color="#EFCF7D"/>
<stop offset="0.53" stop-color="#F3DD99"/>
<stop offset="0.6" stop-color="#F0D180"/>
<stop offset="0.72" stop-color="#EBBF59"/>
<stop offset="0.83" stop-color="#E8B13D"/>
<stop offset="0.93" stop-color="#E6A92C"/>
<stop offset="1" stop-color="#E6A726"/>
</linearGradient>
<linearGradient id="paint2_linear_178_23725" x1="402.04" y1="99.7936" x2="11.6624" y2="364.956" gradientUnits="userSpaceOnUse">
<stop stop-color="#E5A31E"/>
<stop offset="0.1" stop-color="#E5A421"/>
<stop offset="0.2" stop-color="#E6AA2D"/>
<stop offset="0.29" stop-color="#E8B340"/>
<stop offset="0.38" stop-color="#EBBF5A"/>
<stop offset="0.47" stop-color="#EFCF7D"/>
<stop offset="0.53" stop-color="#F3DD99"/>
<stop offset="0.6" stop-color="#F0D180"/>
<stop offset="0.72" stop-color="#EBBF59"/>
<stop offset="0.83" stop-color="#E8B13D"/>
<stop offset="0.93" stop-color="#E6A92C"/>
<stop offset="1" stop-color="#E6A726"/>
</linearGradient>
<linearGradient id="paint3_linear_178_23725" x1="475.91" y1="8.15594" x2="275.924" y2="383.689" gradientUnits="userSpaceOnUse">
<stop stop-color="#E5A31E"/>
<stop offset="0.1" stop-color="#E5A421"/>
<stop offset="0.2" stop-color="#E6AA2D"/>
<stop offset="0.29" stop-color="#E8B340"/>
<stop offset="0.38" stop-color="#EBBF5A"/>
<stop offset="0.47" stop-color="#EFCF7D"/>
<stop offset="0.53" stop-color="#F3DD99"/>
<stop offset="0.6" stop-color="#F0D180"/>
<stop offset="0.72" stop-color="#EBBF59"/>
<stop offset="0.83" stop-color="#E8B13D"/>
<stop offset="0.93" stop-color="#E6A92C"/>
<stop offset="1" stop-color="#E6A726"/>
</linearGradient>
<linearGradient id="paint4_linear_178_23725" x1="361.54" y1="110.783" x2="-9.18963" y2="477.946" gradientUnits="userSpaceOnUse">
<stop stop-color="#E5A31E"/>
<stop offset="0.1" stop-color="#E5A421"/>
<stop offset="0.2" stop-color="#E6AA2D"/>
<stop offset="0.29" stop-color="#E8B340"/>
<stop offset="0.38" stop-color="#EBBF5A"/>
<stop offset="0.47" stop-color="#EFCF7D"/>
<stop offset="0.53" stop-color="#F3DD99"/>
<stop offset="0.6" stop-color="#F0D180"/>
<stop offset="0.72" stop-color="#EBBF59"/>
<stop offset="0.83" stop-color="#E8B13D"/>
<stop offset="0.93" stop-color="#E6A92C"/>
<stop offset="1" stop-color="#E6A726"/>
</linearGradient>
<linearGradient id="paint5_linear_178_23725" x1="361.54" y1="110.783" x2="-9.18963" y2="477.946" gradientUnits="userSpaceOnUse">
<stop stop-color="#E5A31E"/>
<stop offset="0.1" stop-color="#E5A421"/>
<stop offset="0.2" stop-color="#E6AA2D"/>
<stop offset="0.29" stop-color="#E8B340"/>
<stop offset="0.38" stop-color="#EBBF5A"/>
<stop offset="0.47" stop-color="#EFCF7D"/>
<stop offset="0.53" stop-color="#F3DD99"/>
<stop offset="0.6" stop-color="#F0D180"/>
<stop offset="0.72" stop-color="#EBBF59"/>
<stop offset="0.83" stop-color="#E8B13D"/>
<stop offset="0.93" stop-color="#E6A92C"/>
<stop offset="1" stop-color="#E6A726"/>
</linearGradient>
<linearGradient id="paint6_linear_178_23725" x1="361.54" y1="110.783" x2="-9.18963" y2="477.946" gradientUnits="userSpaceOnUse">
<stop stop-color="#E5A31E"/>
<stop offset="0.1" stop-color="#E5A421"/>
<stop offset="0.2" stop-color="#E6AA2D"/>
<stop offset="0.29" stop-color="#E8B340"/>
<stop offset="0.38" stop-color="#EBBF5A"/>
<stop offset="0.47" stop-color="#EFCF7D"/>
<stop offset="0.53" stop-color="#F3DD99"/>
<stop offset="0.6" stop-color="#F0D180"/>
<stop offset="0.72" stop-color="#EBBF59"/>
<stop offset="0.83" stop-color="#E8B13D"/>
<stop offset="0.93" stop-color="#E6A92C"/>
<stop offset="1" stop-color="#E6A726"/>
</linearGradient>
<linearGradient id="paint7_linear_178_23725" x1="227.597" y1="65.7441" x2="200.209" y2="85.0549" gradientUnits="userSpaceOnUse">
<stop stop-color="#E5A31E"/>
<stop offset="0.1" stop-color="#E5A421"/>
<stop offset="0.2" stop-color="#E6AA2D"/>
<stop offset="0.29" stop-color="#E8B340"/>
<stop offset="0.38" stop-color="#EBBF5A"/>
<stop offset="0.47" stop-color="#EFCF7D"/>
<stop offset="0.53" stop-color="#F3DD99"/>
<stop offset="0.6" stop-color="#F0D180"/>
<stop offset="0.72" stop-color="#EBBF59"/>
<stop offset="0.83" stop-color="#E8B13D"/>
<stop offset="0.93" stop-color="#E6A92C"/>
<stop offset="1" stop-color="#E6A726"/>
</linearGradient>
<linearGradient id="paint8_linear_178_23725" x1="253.579" y1="65.7441" x2="226.191" y2="85.0549" gradientUnits="userSpaceOnUse">
<stop stop-color="#E5A31E"/>
<stop offset="0.1" stop-color="#E5A421"/>
<stop offset="0.2" stop-color="#E6AA2D"/>
<stop offset="0.29" stop-color="#E8B340"/>
<stop offset="0.38" stop-color="#EBBF5A"/>
<stop offset="0.47" stop-color="#EFCF7D"/>
<stop offset="0.53" stop-color="#F3DD99"/>
<stop offset="0.6" stop-color="#F0D180"/>
<stop offset="0.72" stop-color="#EBBF59"/>
<stop offset="0.83" stop-color="#E8B13D"/>
<stop offset="0.93" stop-color="#E6A92C"/>
<stop offset="1" stop-color="#E6A726"/>
</linearGradient>
<linearGradient id="paint9_linear_178_23725" x1="227.597" y1="93.953" x2="200.209" y2="113.264" gradientUnits="userSpaceOnUse">
<stop stop-color="#E5A31E"/>
<stop offset="0.1" stop-color="#E5A421"/>
<stop offset="0.2" stop-color="#E6AA2D"/>
<stop offset="0.29" stop-color="#E8B340"/>
<stop offset="0.38" stop-color="#EBBF5A"/>
<stop offset="0.47" stop-color="#EFCF7D"/>
<stop offset="0.53" stop-color="#F3DD99"/>
<stop offset="0.6" stop-color="#F0D180"/>
<stop offset="0.72" stop-color="#EBBF59"/>
<stop offset="0.83" stop-color="#E8B13D"/>
<stop offset="0.93" stop-color="#E6A92C"/>
<stop offset="1" stop-color="#E6A726"/>
</linearGradient>
<linearGradient id="paint10_linear_178_23725" x1="253.579" y1="93.953" x2="226.191" y2="113.264" gradientUnits="userSpaceOnUse">
<stop stop-color="#E5A31E"/>
<stop offset="0.1" stop-color="#E5A421"/>
<stop offset="0.2" stop-color="#E6AA2D"/>
<stop offset="0.29" stop-color="#E8B340"/>
<stop offset="0.38" stop-color="#EBBF5A"/>
<stop offset="0.47" stop-color="#EFCF7D"/>
<stop offset="0.53" stop-color="#F3DD99"/>
<stop offset="0.6" stop-color="#F0D180"/>
<stop offset="0.72" stop-color="#EBBF59"/>
<stop offset="0.83" stop-color="#E8B13D"/>
<stop offset="0.93" stop-color="#E6A92C"/>
<stop offset="1" stop-color="#E6A726"/>
</linearGradient>
<linearGradient id="paint11_linear_178_23725" x1="403.784" y1="61.0896" x2="-37.112" y2="371.139" gradientUnits="userSpaceOnUse">
<stop stop-color="#E5A31E"/>
<stop offset="0.1" stop-color="#E5A421"/>
<stop offset="0.2" stop-color="#E6AA2D"/>
<stop offset="0.29" stop-color="#E8B340"/>
<stop offset="0.38" stop-color="#EBBF5A"/>
<stop offset="0.47" stop-color="#EFCF7D"/>
<stop offset="0.53" stop-color="#F3DD99"/>
<stop offset="0.6" stop-color="#F0D180"/>
<stop offset="0.72" stop-color="#EBBF59"/>
<stop offset="0.83" stop-color="#E8B13D"/>
<stop offset="0.93" stop-color="#E6A92C"/>
<stop offset="1" stop-color="#E6A726"/>
</linearGradient>
</defs>
</svg>
