<svg width="39" height="24" viewBox="0 0 39 24" fill="none" xmlns="http://www.w3.org/2000/svg">
<g id="Mastercard">
<path id="Left" fill-rule="evenodd" clip-rule="evenodd" d="M19.5 21.0719C17.4346 22.8543 14.7554 23.9303 11.8278 23.9303C5.2955 23.9303 0 18.5733 0 11.9651C0 5.35697 5.2955 0 11.8278 0C14.7554 0 17.4346 1.07599 19.5 2.85838C21.5654 1.07599 24.2446 0 27.1722 0C33.7045 0 39 5.35697 39 11.9651C39 18.5733 33.7045 23.9303 27.1722 23.9303C24.2446 23.9303 21.5654 22.8543 19.5 21.0719Z" fill="#ED0006"/>
<path id="Right" fill-rule="evenodd" clip-rule="evenodd" d="M19.5 21.0719C22.0431 18.8773 23.6556 15.6117 23.6556 11.9651C23.6556 8.31856 22.0431 5.053 19.5 2.85838C21.5654 1.07599 24.2446 0 27.1722 0C33.7045 0 39 5.35697 39 11.9651C39 18.5733 33.7045 23.9303 27.1722 23.9303C24.2446 23.9303 21.5654 22.8543 19.5 21.0719Z" fill="#F9A000"/>
<path id="Middle" fill-rule="evenodd" clip-rule="evenodd" d="M19.4994 21.0719C22.0425 18.8773 23.655 15.6117 23.655 11.9652C23.655 8.31859 22.0425 5.05302 19.4994 2.8584C16.9563 5.05302 15.3438 8.31859 15.3438 11.9652C15.3438 15.6117 16.9563 18.8773 19.4994 21.0719Z" fill="#FF5E00"/>
</g>
</svg>
