<svg width="33" height="37" viewBox="0 0 33 37" fill="none" xmlns="http://www.w3.org/2000/svg">
<path d="M22.8234 36.3797H0.417875C0.184357 36.3797 0 36.1954 0 35.9618V0.417875C0 0.184357 0.184357 0 0.417875 0H17.5508C17.7843 0 17.9686 0.184357 17.9686 0.417875C17.9686 0.651394 17.7843 0.83575 17.5508 0.83575H0.83575V35.544H22.8234C23.0569 35.544 23.2412 35.7283 23.2412 35.9618C23.2412 36.1831 23.0569 36.3797 22.8234 36.3797Z" fill="#4E4E4E"/>
<path d="M22.8231 16.9608C22.5896 16.9608 22.4053 16.7765 22.4053 16.543V5.70279C22.4053 5.46927 22.5896 5.28491 22.8231 5.28491C23.0567 5.28491 23.241 5.46927 23.241 5.70279V16.543C23.241 16.7765 23.0567 16.9608 22.8231 16.9608Z" fill="#4E4E4E"/>
<path d="M22.8234 6.12064H17.5385C17.305 6.12064 17.1206 5.93628 17.1206 5.70276V0.417875C17.1206 0.184357 17.305 0 17.5385 0C17.772 0 17.9564 0.184357 17.9564 0.417875V5.28489H22.8234C23.0569 5.28489 23.2412 5.46925 23.2412 5.70276C23.2412 5.93628 23.0569 6.12064 22.8234 6.12064Z" fill="#4E4E4E"/>
<path d="M22.8234 6.12064H17.5385C17.305 6.12064 17.1206 5.93628 17.1206 5.70276V0.417875C17.1206 0.184357 17.305 0 17.5385 0C17.772 0 17.9564 0.184357 17.9564 0.417875V5.28489H22.8234C23.0569 5.28489 23.2412 5.46925 23.2412 5.70276C23.2412 5.93628 23.0569 6.12064 22.8234 6.12064Z" fill="#4E4E4E"/>
<path d="M22.8232 6.12074C22.7126 6.12074 22.6143 6.08387 22.5283 5.99784L17.2434 0.712947C17.0836 0.553171 17.0836 0.282781 17.2434 0.123006C17.4031 -0.0367701 17.6735 -0.0367701 17.8333 0.123006L23.1182 5.4079C23.278 5.56767 23.278 5.83806 23.1182 5.99784C23.0445 6.08387 22.9338 6.12074 22.8232 6.12074Z" fill="#4E4E4E"/>
<path d="M19.6894 20.4267H19.4682C18.8414 20.4267 18.3252 19.9105 18.3252 19.2836V17.268C18.3252 16.6412 18.8414 16.125 19.4682 16.125H19.6894C20.3162 16.125 20.8324 16.6412 20.8324 17.268V19.2836C20.8324 19.9105 20.3162 20.4267 19.6894 20.4267ZM19.4682 16.9608C19.2961 16.9608 19.1609 17.0959 19.1609 17.268V19.2836C19.1609 19.4557 19.2961 19.5909 19.4682 19.5909H19.6894C19.8615 19.5909 19.9967 19.4557 19.9967 19.2836V17.268C19.9967 17.0959 19.8615 16.9608 19.6894 16.9608H19.4682Z" fill="#4E4E4E"/>
<path d="M23.1553 20.4267H22.934C22.3072 20.4267 21.791 19.9105 21.791 19.2836V17.268C21.791 16.6412 22.3072 16.125 22.934 16.125H23.1553C23.7821 16.125 24.2983 16.6412 24.2983 17.268V19.2836C24.2983 19.9105 23.7821 20.4267 23.1553 20.4267ZM22.934 16.9608C22.762 16.9608 22.6268 17.0959 22.6268 17.268V19.2836C22.6268 19.4557 22.762 19.5909 22.934 19.5909H23.1553C23.3273 19.5909 23.4625 19.4557 23.4625 19.2836V17.268C23.4625 17.0959 23.3273 16.9608 23.1553 16.9608H22.934Z" fill="#4E4E4E"/>
<path d="M26.6333 20.4267H26.4121C25.7852 20.4267 25.269 19.9105 25.269 19.2836V17.268C25.269 16.6412 25.7852 16.125 26.4121 16.125H26.6333C27.2601 16.125 27.7763 16.6412 27.7763 17.268V19.2836C27.764 19.9105 27.2601 20.4267 26.6333 20.4267ZM26.3998 16.9608C26.2277 16.9608 26.0925 17.0959 26.0925 17.268V19.2836C26.0925 19.4557 26.2277 19.5909 26.3998 19.5909H26.621C26.7931 19.5909 26.9283 19.4557 26.9283 19.2836V17.268C26.9283 17.0959 26.7931 16.9608 26.621 16.9608H26.3998Z" fill="#4E4E4E"/>
<path d="M30.0991 20.4267H29.8779C29.2511 20.4267 28.7349 19.9105 28.7349 19.2836V17.268C28.7349 16.6412 29.2511 16.125 29.8779 16.125H30.0991C30.7259 16.125 31.2421 16.6412 31.2421 17.268V19.2836C31.2421 19.9105 30.7259 20.4267 30.0991 20.4267ZM29.8779 16.9608C29.7058 16.9608 29.5706 17.0959 29.5706 17.268V19.2836C29.5706 19.4557 29.7058 19.5909 29.8779 19.5909H30.0991C30.2712 19.5909 30.4064 19.4557 30.4064 19.2836V17.268C30.4064 17.0959 30.2712 16.9608 30.0991 16.9608H29.8779Z" fill="#4E4E4E"/>
<path d="M25.2076 33.9707C22.0982 33.9707 19.5786 31.4512 19.5786 28.3417C19.5786 25.6132 21.5328 23.3272 24.1138 22.8233L22.9954 21.9629C22.811 21.8277 22.7741 21.5574 22.9216 21.373C23.0568 21.1886 23.3272 21.1518 23.5116 21.2993L25.4657 22.7987C25.6132 22.9093 25.6624 23.0937 25.6009 23.2657C25.5395 23.4378 25.3797 23.5484 25.2076 23.5484C22.5652 23.5484 20.4144 25.6992 20.4144 28.3417C20.4144 30.9841 22.5652 33.135 25.2076 33.135C27.8501 33.135 30.0009 30.9841 30.0009 28.3417C30.0009 27.0389 29.4724 25.7238 28.649 25.011C28.4769 24.8635 28.4523 24.5931 28.6121 24.421C28.7596 24.249 29.03 24.2244 29.202 24.3842C30.1976 25.2568 30.8489 26.8054 30.8489 28.3417C30.8367 31.4512 28.3048 33.9707 25.2076 33.9707Z" fill="#4E4E4E"/>
<path d="M23.5731 25.4411C23.4748 25.4411 23.3765 25.4042 23.3027 25.3428C23.1307 25.1953 23.1061 24.9249 23.2536 24.7528L24.8882 22.8601C25.0357 22.688 25.3061 22.6635 25.4782 22.811C25.6502 22.9584 25.6748 23.2288 25.5273 23.4009L23.8927 25.2936C23.8067 25.3919 23.696 25.4411 23.5731 25.4411Z" fill="#4E4E4E"/>
<path d="M25.2079 29.5461C24.5811 29.5461 24.0771 29.0422 24.0771 28.4154C24.0771 27.7886 24.5811 27.2847 25.2079 27.2847C25.8347 27.2847 26.3386 27.7886 26.3386 28.4154C26.3386 29.0299 25.8347 29.5461 25.2079 29.5461ZM25.2079 28.1081C25.0481 28.1081 24.9129 28.2433 24.9129 28.4031C24.9129 28.5629 25.0481 28.6981 25.2079 28.6981C25.3676 28.6981 25.5028 28.5629 25.5028 28.4031C25.5028 28.2433 25.3676 28.1081 25.2079 28.1081Z" fill="#4E4E4E"/>
<path d="M21.3607 28.8211H19.9965C19.763 28.8211 19.5786 28.6367 19.5786 28.4032C19.5786 28.1697 19.763 27.9854 19.9965 27.9854H21.3607C21.5942 27.9854 21.7786 28.1697 21.7786 28.4032C21.7786 28.6367 21.5942 28.8211 21.3607 28.8211Z" fill="#4E4E4E"/>
<path d="M21.5574 32.4835C21.4468 32.4835 21.3484 32.4467 21.2624 32.3606C21.1026 32.2009 21.1026 31.9305 21.2624 31.7707L22.1965 30.8366C22.3563 30.6769 22.6266 30.6769 22.7864 30.8366C22.9462 30.9964 22.9462 31.2668 22.7864 31.4266L21.8523 32.3606C21.7663 32.4344 21.6557 32.4835 21.5574 32.4835Z" fill="#4E4E4E"/>
<path d="M25.2074 33.9708C24.9739 33.9708 24.7896 33.7865 24.7896 33.5529V32.2501C24.7896 32.0166 24.9739 31.8323 25.2074 31.8323C25.4409 31.8323 25.6253 32.0166 25.6253 32.2501V33.5529C25.6253 33.7865 25.4409 33.9708 25.2074 33.9708Z" fill="#4E4E4E"/>
<path d="M28.8582 32.4835C28.7475 32.4835 28.6492 32.4467 28.5632 32.3606L27.6291 31.4266C27.4693 31.2668 27.4693 30.9964 27.6291 30.8366C27.7889 30.6769 28.0593 30.6769 28.219 30.8366L29.1531 31.7707C29.3129 31.9305 29.3129 32.2009 29.1531 32.3606C29.0671 32.4344 28.9688 32.4835 28.8582 32.4835Z" fill="#4E4E4E"/>
<path d="M30.4188 28.8211H29.0546C28.8211 28.8211 28.6367 28.6367 28.6367 28.4032C28.6367 28.1697 28.8211 27.9854 29.0546 27.9854H30.4188C30.6524 27.9854 30.8367 28.1697 30.8367 28.4032C30.8367 28.6367 30.6524 28.8211 30.4188 28.8211Z" fill="#4E4E4E"/>
<path d="M25.2074 28.1082C24.9739 28.1082 24.7896 27.9239 24.7896 27.6903V25.6747C24.7896 25.4412 24.9739 25.2568 25.2074 25.2568C25.4409 25.2568 25.6253 25.4412 25.6253 25.6747V27.6903C25.6253 27.9239 25.4409 28.1082 25.2074 28.1082Z" fill="#4E4E4E"/>
<path d="M23.4626 30.8245C23.3643 30.8245 23.2537 30.7876 23.1799 30.7139C23.0079 30.5541 23.0079 30.296 23.1677 30.1239L24.3844 28.8457C24.5442 28.6737 24.8023 28.6736 24.9743 28.8334C25.1464 28.9932 25.1464 29.2513 24.9866 29.4234L23.7699 30.7016C23.6839 30.7753 23.5732 30.8245 23.4626 30.8245Z" fill="#4E4E4E"/>
<path d="M22.2089 18.6937H20.4145C20.1809 18.6937 19.9966 18.5093 19.9966 18.2758C19.9966 18.0423 20.1809 17.8579 20.4145 17.8579H22.2089C22.4424 17.8579 22.6267 18.0423 22.6267 18.2758C22.6267 18.5093 22.4424 18.6937 22.2089 18.6937Z" fill="#4E4E4E"/>
<path d="M29.1527 18.6937H27.3583C27.1248 18.6937 26.9404 18.5093 26.9404 18.2758C26.9404 18.0423 27.1248 17.8579 27.3583 17.8579H29.1527C29.3862 17.8579 29.5706 18.0423 29.5706 18.2758C29.5706 18.5093 29.3862 18.6937 29.1527 18.6937Z" fill="#4E4E4E"/>
<path d="M31.4757 36.3796H18.1037C17.2556 36.3796 16.5674 35.6913 16.5674 34.8433V19.4065C16.5674 18.5585 17.2556 17.8702 18.1037 17.8702H18.7305C18.964 17.8702 19.1484 18.0546 19.1484 18.2881C19.1484 18.5216 18.964 18.706 18.7305 18.706H18.1037C17.7104 18.706 17.3908 19.0255 17.3908 19.4188V34.8433C17.3908 35.2366 17.7104 35.5561 18.1037 35.5561H31.4634C31.8567 35.5561 32.1762 35.2366 32.1762 34.8433V19.4065C32.1762 19.0132 31.8567 18.6937 31.4634 18.6937H30.812C30.5785 18.6937 30.3941 18.5093 30.3941 18.2758C30.3941 18.0423 30.5785 17.8579 30.812 17.8579H31.4634C32.3114 17.8579 32.9997 18.5462 32.9997 19.3942V34.8187C33.012 35.679 32.3237 36.3796 31.4757 36.3796Z" fill="#4E4E4E"/>
<path d="M25.6747 18.6937H23.8803C23.6468 18.6937 23.4624 18.5093 23.4624 18.2758C23.4624 18.0423 23.6468 17.8579 23.8803 17.8579H25.6747C25.9082 17.8579 26.0926 18.0423 26.0926 18.2758C26.0926 18.5093 25.9082 18.6937 25.6747 18.6937Z" fill="#4E4E4E"/>
<path d="M9.50051 13.4457H2.86368C2.63016 13.4457 2.4458 13.2614 2.4458 13.0279V6.39102C2.4458 6.1575 2.63016 5.97314 2.86368 5.97314H9.50051C9.73403 5.97314 9.91839 6.1575 9.91839 6.39102V13.0279C9.91839 13.2614 9.73403 13.4457 9.50051 13.4457ZM3.26926 12.61H9.08264V6.7966H3.26926V12.61Z" fill="#4E4E4E"/>
<path d="M20.3899 7.71832H11.6269C11.3933 7.71832 11.209 7.53396 11.209 7.30044C11.209 7.06692 11.3933 6.88257 11.6269 6.88257H20.3899C20.6235 6.88257 20.8078 7.06692 20.8078 7.30044C20.8078 7.53396 20.6112 7.71832 20.3899 7.71832Z" fill="#4E4E4E"/>
<path d="M20.3899 10.1273H11.6269C11.3933 10.1273 11.209 9.9429 11.209 9.70938C11.209 9.47586 11.3933 9.2915 11.6269 9.2915H20.3899C20.6235 9.2915 20.8078 9.47586 20.8078 9.70938C20.8078 9.93061 20.6112 10.1273 20.3899 10.1273Z" fill="#4E4E4E"/>
<path d="M20.1811 12.524H11.6147C11.3811 12.524 11.1968 12.3396 11.1968 12.1061C11.1968 11.8726 11.3811 11.6882 11.6147 11.6882H20.1811C20.4146 11.6882 20.599 11.8726 20.599 12.1061C20.599 12.3396 20.4146 12.524 20.1811 12.524Z" fill="#4E4E4E"/>
<path d="M9.50051 22.3317H2.86368C2.63016 22.3317 2.4458 22.1474 2.4458 21.9138V15.277C2.4458 15.0435 2.63016 14.8591 2.86368 14.8591H9.50051C9.73403 14.8591 9.91839 15.0435 9.91839 15.277V21.9138C9.91839 22.1474 9.73403 22.3317 9.50051 22.3317ZM3.26926 21.496H9.08264V15.6826H3.26926V21.496Z" fill="#4E4E4E"/>
<path d="M17.3296 19.001H11.6269C11.3933 19.001 11.209 18.8167 11.209 18.5832C11.209 18.3496 11.3933 18.1653 11.6269 18.1653H17.3296C17.5631 18.1653 17.7475 18.3496 17.7475 18.5832C17.7475 18.8167 17.5631 19.001 17.3296 19.001Z" fill="#4E4E4E"/>
<path d="M16.9855 21.41H11.6269C11.3933 21.41 11.209 21.2256 11.209 20.9921C11.209 20.7586 11.3933 20.5742 11.6269 20.5742H16.9855C17.219 20.5742 17.4034 20.7586 17.4034 20.9921C17.4034 21.2256 17.219 21.41 16.9855 21.41Z" fill="#4E4E4E"/>
<path d="M16.5062 16.6043H11.6269C11.3933 16.6043 11.209 16.4199 11.209 16.1864C11.209 15.9529 11.3933 15.7686 11.6269 15.7686H16.5062C16.7397 15.7686 16.924 15.9529 16.924 16.1864C16.924 16.4199 16.7397 16.6043 16.5062 16.6043Z" fill="#4E4E4E"/>
<path d="M9.50051 31.2177H2.86368C2.63016 31.2177 2.4458 31.0333 2.4458 30.7998V24.163C2.4458 23.9295 2.63016 23.7451 2.86368 23.7451H9.50051C9.73403 23.7451 9.91839 23.9295 9.91839 24.163V30.7998C9.91839 31.0211 9.73403 31.2177 9.50051 31.2177ZM3.26926 30.382H9.08264V24.5686H3.26926V30.382Z" fill="#4E4E4E"/>
<path d="M16.9855 25.4903H11.6269C11.3933 25.4903 11.209 25.3059 11.209 25.0724C11.209 24.8389 11.3933 24.6545 11.6269 24.6545H16.9855C17.219 24.6545 17.4034 24.8389 17.4034 25.0724C17.4034 25.3059 17.219 25.4903 16.9855 25.4903Z" fill="#4E4E4E"/>
<path d="M16.9855 27.887H11.6269C11.3933 27.887 11.209 27.7027 11.209 27.4691C11.209 27.2356 11.3933 27.0513 11.6269 27.0513H16.9855C17.219 27.0513 17.4034 27.2356 17.4034 27.4691C17.4034 27.7027 17.219 27.887 16.9855 27.887Z" fill="#4E4E4E"/>
<path d="M16.9855 30.296H11.6269C11.3933 30.296 11.209 30.1116 11.209 29.8781C11.209 29.6446 11.3933 29.4602 11.6269 29.4602H16.9855C17.219 29.4602 17.4034 29.6446 17.4034 29.8781C17.4034 30.0993 17.219 30.296 16.9855 30.296Z" fill="#4E4E4E"/>
<path d="M5.57981 20.0088C5.4692 20.0088 5.37087 19.9719 5.28484 19.8859L4.49825 19.0993C4.33847 18.9395 4.33847 18.6691 4.49825 18.5094C4.65803 18.3496 4.92842 18.3496 5.08819 18.5094L5.57981 19.001L7.27589 17.3049C7.43566 17.1451 7.70605 17.1451 7.86583 17.3049C8.02561 17.4647 8.02561 17.7351 7.86583 17.8948L5.87478 19.8859C5.78875 19.9596 5.67813 20.0088 5.57981 20.0088Z" fill="#4E4E4E"/>
<path d="M5.57981 11.1228C5.4692 11.1228 5.37087 11.0859 5.28484 10.9999L4.49825 10.2133C4.33847 10.0535 4.33847 9.78314 4.49825 9.62337C4.65803 9.46359 4.92842 9.46359 5.08819 9.62337L5.57981 10.115L7.27589 8.4189C7.43566 8.25913 7.70605 8.25913 7.86583 8.4189C8.02561 8.57868 8.02561 8.84907 7.86583 9.00885L5.87478 10.9999C5.78875 11.0736 5.67813 11.1228 5.57981 11.1228Z" fill="#4E4E4E"/>
<path d="M5.57981 28.8826C5.4692 28.8826 5.37087 28.8457 5.28484 28.7597L4.49825 27.9731C4.33847 27.8133 4.33847 27.5429 4.49825 27.3831C4.65803 27.2234 4.92842 27.2234 5.08819 27.3831L5.57981 27.8747L7.27589 26.1787C7.43566 26.0189 7.70605 26.0189 7.86583 26.1787C8.02561 26.3384 8.02561 26.6088 7.86583 26.7686L5.86249 28.7597C5.78875 28.8457 5.67813 28.8826 5.57981 28.8826Z" fill="#4E4E4E"/>
</svg>
