<svg width="112" height="112" viewBox="0 0 112 112" fill="none" xmlns="http://www.w3.org/2000/svg">
<path fill-rule="evenodd" clip-rule="evenodd" d="M55.5912 104.234C68.492 104.234 80.8644 99.1088 89.9866 89.9866C99.1088 80.8644 104.234 68.492 104.234 55.5912C104.234 42.6905 99.1088 30.3181 89.9866 21.1959C80.8644 12.0737 68.492 6.9489 55.5912 6.9489C42.6905 6.9489 30.3181 12.0737 21.1959 21.1959C12.0737 30.3181 6.9489 42.6905 6.9489 55.5912C6.9489 68.492 12.0737 80.8644 21.1959 89.9866C30.3181 99.1088 42.6905 104.234 55.5912 104.234ZM55.5912 111.182C70.335 111.182 84.4748 105.326 94.9002 94.9002C105.326 84.4748 111.182 70.335 111.182 55.5912C111.182 40.8475 105.326 26.7077 94.9002 16.2823C84.4748 5.85692 70.335 0 55.5912 0C40.8475 0 26.7077 5.85692 16.2823 16.2823C5.85692 26.7077 0 40.8475 0 55.5912C0 70.335 5.85692 84.4748 16.2823 94.9002C26.7077 105.326 40.8475 111.182 55.5912 111.182Z" fill="#20695E"/>
<path fill-rule="evenodd" clip-rule="evenodd" d="M76.2279 34.5361C77.2004 33.5721 78.5132 33.0296 79.8826 33.0258C81.2519 33.022 82.5677 33.5573 83.5455 34.5159C84.5233 35.4745 85.0845 36.7795 85.1079 38.1486C85.1312 39.5178 84.6148 40.8411 83.6702 41.8325L55.9302 76.5075C55.4534 77.021 54.878 77.4331 54.2383 77.7192C53.5987 78.0052 52.9079 78.1593 52.2073 78.1723C51.5067 78.1853 50.8107 78.0568 50.1609 77.7947C49.5111 77.5325 48.9208 77.142 48.4253 76.6465L30.0455 58.2597C29.5334 57.7825 29.1227 57.2072 28.8379 56.5679C28.553 55.9286 28.3999 55.2385 28.3875 54.5387C28.3752 53.8389 28.5039 53.1438 28.766 52.4949C29.0282 51.8459 29.4183 51.2564 29.9132 50.7615C30.4081 50.2666 30.9976 49.8765 31.6465 49.6144C32.2955 49.3523 32.9906 49.2235 33.6903 49.2359C34.3901 49.2482 35.0802 49.4014 35.7195 49.6862C36.3588 49.9711 36.9342 50.3818 37.4113 50.8938L51.9623 65.4379L76.0959 34.689C76.1389 34.6352 76.1854 34.5841 76.2349 34.5361H76.2279Z" fill="#20695E"/>
</svg>
